<?xml version="1.0" standalone="no"?>
<!DOCTYPE svg PUBLIC "-//W3C//DTD SVG 20010904//EN"
 "http://www.w3.org/TR/2001/REC-SVG-20010904/DTD/svg10.dtd">
<svg version="1.0" xmlns="http://www.w3.org/2000/svg"
 width="300.000000pt" height="300.000000pt" viewBox="0 0 300.000000 300.000000"
 preserveAspectRatio="xMidYMid meet">
<metadata>
Created by potrace 1.14, written by Peter Selinger 2001-2017
</metadata>
<g transform="translate(0.000000,300.000000) scale(0.100000,-0.100000)"
fill="#000000" stroke="none">
<path d="M1414 2258 c-217 -18 -438 -152 -562 -342 -44 -67 -45 -68 -81 -62
-20 3 -65 1 -100 -5 -73 -11 -101 -5 -101 22 0 16 -7 19 -45 19 -25 0 -45 -5
-45 -10 0 -15 -51 -1 -76 21 -11 11 -30 19 -42 19 -17 0 -22 -6 -22 -28 0 -18
-10 -38 -26 -53 -14 -13 -35 -41 -45 -61 -13 -25 -24 -35 -34 -32 -10 4 -15 0
-15 -15 0 -13 5 -19 14 -15 20 8 29 -57 10 -72 -21 -17 -17 -34 9 -34 12 0 30
-9 40 -20 17 -20 16 -22 -12 -63 -16 -23 -37 -52 -48 -64 -19 -21 -19 -21 -31
-2 -7 10 -12 26 -12 34 0 8 -7 15 -15 15 -22 0 -18 -23 5 -38 34 -21 19 -72
-21 -72 -10 0 -19 -5 -21 -11 -2 -5 -28 -10 -58 -11 -30 0 -61 -5 -68 -11 -40
-32 21 -90 91 -85 l42 3 0 -54 c1 -45 5 -56 27 -72 31 -23 201 -45 239 -31 21
8 18 10 -28 17 -72 10 -67 26 7 23 33 -1 60 -6 60 -10 0 -12 48 -9 105 6 l50
13 0 54 c0 47 -3 54 -21 57 -18 3 -21 -3 -22 -38 -2 -38 0 -41 19 -35 15 5 19
4 15 -4 -4 -6 -16 -11 -27 -11 -17 0 -19 7 -17 88 0 48 3 72 5 55 3 -23 10
-33 22 -33 19 0 61 -51 61 -73 0 -17 75 -31 114 -21 14 3 26 2 26 -3 0 -9
-212 -69 -535 -150 -77 -20 -142 -37 -144 -39 -17 -15 22 -9 124 20 109 30
127 32 194 25 41 -4 78 -6 83 -3 18 11 6 24 -22 24 -16 0 -30 5 -30 11 0 8 19
9 63 4 70 -8 66 -8 90 -6 27 2 20 21 -8 21 -14 0 -25 5 -25 11 0 7 26 8 80 3
57 -5 80 -3 80 5 0 6 -11 11 -25 11 -14 0 -25 5 -25 10 0 11 100 13 115 2 6
-4 30 -37 54 -74 51 -80 175 -200 254 -247 214 -126 503 -138 720 -30 134 68
241 162 315 279 42 68 57 80 96 80 17 0 38 5 46 10 12 8 8 10 -15 12 -16 1
-41 1 -55 0 -16 -1 -21 1 -12 7 7 4 12 12 11 17 -5 28 3 34 51 34 28 0 50 -4
50 -10 0 -5 -24 -10 -52 -11 -48 -1 -50 -2 -23 -10 45 -13 125 0 125 20 0 22
57 84 70 76 6 -4 11 8 11 27 1 18 6 -1 10 -42 5 -41 7 -81 4 -88 -5 -15 -41
-16 -51 -1 -4 8 0 9 15 4 19 -6 21 -3 21 35 0 37 -2 41 -22 38 -18 -2 -24 -11
-26 -37 -5 -49 6 -81 26 -81 31 0 45 17 52 62 l7 43 2 -39 c1 -24 -5 -47 -16
-58 -15 -17 -15 -18 5 -18 11 0 22 3 25 8 2 4 2 1 1 -5 -3 -13 37 -18 49 -7 4
4 34 8 67 8 43 2 60 -2 60 -11 0 -9 -17 -13 -52 -14 -48 -1 -50 -2 -23 -10 42
-12 203 9 235 31 21 15 25 26 25 71 l1 54 42 -3 c69 -5 130 53 90 86 -7 5 -37
9 -66 9 -30 0 -57 4 -60 10 -4 6 -16 12 -26 14 -10 2 -24 12 -30 21 -8 13 -6
22 12 41 25 27 29 47 7 47 -8 0 -15 -6 -15 -14 0 -8 -7 -17 -16 -20 -8 -3 -12
-10 -9 -16 3 -5 0 -7 -7 -4 -7 3 -32 32 -56 66 -24 33 -39 57 -33 54 5 -4 15
3 21 14 6 12 21 20 35 20 19 0 25 5 25 21 0 15 -5 19 -15 15 -16 -6 -17 4 -6
44 4 14 12 25 19 25 7 0 12 3 12 8 0 4 0 12 0 18 0 6 -7 9 -15 5 -10 -3 -20 6
-31 27 -10 18 -30 49 -47 69 -19 24 -28 44 -24 58 4 16 0 20 -21 20 -14 0 -35
-8 -46 -19 -25 -22 -76 -36 -76 -21 0 5 -20 10 -45 10 -38 0 -45 -3 -45 -19 0
-27 -26 -33 -102 -22 -35 5 -84 7 -109 4 -42 -5 -45 -3 -63 29 -73 127 -193
237 -331 303 -137 65 -254 86 -411 73z m196 -12 c0 -1 -22 -17 -50 -34 -51
-32 -60 -48 -38 -70 9 -9 3 -12 -27 -12 -30 0 -36 3 -27 12 7 7 12 17 12 23 0
18 -59 57 -73 48 -6 -4 -21 -8 -32 -8 -15 0 -19 -6 -17 -24 1 -14 9 -32 18
-42 13 -15 13 -17 -11 -21 -17 -4 -25 -1 -25 9 0 8 -7 28 -16 44 -12 25 -18
28 -29 19 -8 -7 -22 -9 -32 -5 -22 9 48 30 138 40 55 6 62 5 80 -16 l21 -24
23 27 c21 24 40 34 73 37 6 0 12 -1 12 -3z m145 -58 c14 -6 25 -19 25 -30 0
-28 -36 -58 -70 -58 -29 0 -70 29 -70 51 0 6 5 19 10 30 12 22 64 26 105 7z
m-515 -12 c0 -8 13 -27 28 -44 l29 -30 -24 -11 c-17 -8 -23 -8 -23 2 0 7 -13
27 -30 45 -35 39 -35 39 -12 45 29 8 32 7 32 -7z m-70 -31 c0 -9 -9 -15 -23
-15 -13 0 -32 -6 -43 -14 -19 -14 -19 -15 0 -33 12 -12 16 -13 11 -3 -6 10 -2
9 12 -3 26 -23 69 -19 67 6 -1 9 5 17 13 17 23 0 11 -33 -18 -49 -32 -18 -95
-7 -109 19 -15 28 -1 50 44 71 50 23 46 22 46 4z m755 -39 c13 -10 15 -15 7
-16 -8 0 -25 9 -39 20 -14 11 -32 20 -39 20 -21 0 -16 -21 6 -27 21 -6 26 -18
11 -27 -5 -3 -14 1 -21 9 -18 21 -29 19 -36 -9 -5 -22 -9 -24 -30 -14 -29 14
-31 24 -4 31 14 4 18 10 13 23 -4 11 -3 15 5 10 6 -4 17 2 24 13 12 19 13 19
47 1 20 -10 45 -25 56 -34z m-270 -21 c139 -37 284 -140 354 -256 l30 -48 -32
-5 c-18 -3 -55 -8 -83 -11 -56 -6 -161 -40 -184 -60 -8 -7 -34 -15 -57 -19
-59 -9 -93 -23 -93 -40 0 -8 -16 -18 -37 -23 l-38 -9 -1 -84 c0 -74 2 -86 17
-90 14 -4 16 -9 8 -20 -8 -11 -12 -12 -16 -2 -2 6 -11 12 -19 12 -16 0 -15 -4
-17 105 l-2 79 -37 9 c-21 5 -38 16 -41 26 -4 19 -67 39 -140 47 -21 2 -52 15
-71 29 -19 14 -46 25 -64 25 -17 0 -34 5 -37 10 -3 6 -27 10 -53 10 -26 0 -53
4 -60 9 -23 14 12 67 97 151 83 82 165 129 267 154 80 19 236 20 309 1z
m-1265 -185 c0 -5 -9 -10 -20 -10 -11 0 -20 5 -20 10 0 6 9 10 20 10 11 0 20
-4 20 -10z m2260 0 c0 -5 -9 -10 -20 -10 -11 0 -20 5 -20 10 0 6 9 10 20 10
11 0 20 -4 20 -10z m-2136 -140 c-6 -6 -21 -6 -39 -1 -30 9 -30 9 10 10 25 1
36 -2 29 -9z m2033 3 c-11 -10 -56 -12 -62 -2 -4 5 11 9 31 9 21 0 34 -3 31
-7z m-657 -27 c0 -2 -8 -10 -17 -17 -16 -13 -17 -12 -4 4 13 16 21 21 21 13z
m-1420 -25 c0 -6 -4 -13 -10 -16 -5 -3 -10 1 -10 9 0 9 5 16 10 16 6 0 10 -4
10 -9z m2080 -7 c0 -8 -4 -12 -10 -9 -5 3 -10 10 -10 16 0 5 5 9 10 9 6 0 10
-7 10 -16z m-1650 -19 c0 -14 6 -25 13 -26 9 0 9 -2 0 -6 -7 -2 -23 5 -35 17
-19 18 -20 22 -8 30 24 15 30 12 30 -15z m1235 14 c9 -14 -24 -49 -44 -48 -10
0 -12 2 -3 6 6 2 12 16 12 29 0 25 23 33 35 13z m-923 -29 c4 -28 2 -30 -28
-30 -20 0 -34 6 -38 16 -10 25 2 30 20 8 15 -18 15 -18 9 9 -4 22 -2 27 14 27
13 0 20 -9 23 -30z m614 14 c-3 -9 -6 -22 -6 -30 0 -8 -8 -14 -18 -14 -15 0
-18 6 -14 30 3 22 10 30 24 30 14 0 18 -5 14 -16z m34 -18 c0 -15 -18 -31 -26
-23 -7 7 7 37 17 37 5 0 9 -6 9 -14z m-1336 -17 c-7 -11 -44 -12 -44 -1 0 15
11 20 30 15 11 -3 17 -9 14 -14z m744 -9 c0 -16 -4 -30 -9 -30 -5 0 -9 14 -9
30 0 17 4 30 8 30 5 0 9 -13 10 -30z m482 0 c0 -16 -4 -30 -10 -30 -5 0 -8 13
-7 30 3 39 17 39 17 0z m790 9 c0 -5 -13 -9 -30 -9 -30 0 -41 15 -17 23 17 5
47 -3 47 -14z m-473 5 c-3 -3 -12 -4 -19 -1 -8 3 -5 6 6 6 11 1 17 -2 13 -5z
m-1030 -10 c-3 -3 -12 -4 -19 -1 -8 3 -5 6 6 6 11 1 17 -2 13 -5z m950 0 c-3
-3 -12 -4 -19 -1 -8 3 -5 6 6 6 11 1 17 -2 13 -5z m-878 -48 c-2 -2 -13 8 -23
22 l-19 27 24 -22 c12 -12 21 -24 18 -27z m804 20 c-10 -13 -20 -22 -22 -20
-4 4 29 44 36 44 2 0 -4 -11 -14 -24z m-746 -18 c-3 -8 -6 -5 -6 6 -1 11 2 17
5 13 3 -3 4 -12 1 -19z m670 0 c-3 -8 -6 -5 -6 6 -1 11 2 17 5 13 3 -3 4 -12
1 -19z m-622 2 c3 -5 -1 -10 -9 -10 -9 0 -16 5 -16 10 0 6 4 10 9 10 6 0 13
-4 16 -10z m-715 -4 c0 -2 -8 -10 -17 -17 -16 -13 -17 -12 -4 4 13 16 21 21
21 13z m2021 -13 c13 -16 12 -17 -3 -4 -10 7 -18 15 -18 17 0 8 8 3 21 -13z
m-1384 -23 c10 -13 0 -14 -80 -10 l-92 5 78 3 c48 2 77 7 77 14 0 6 1 9 3 7 1
-2 8 -11 14 -19z m878 -7 c-91 -8 -163 -7 -155 2 5 6 44 8 97 5 48 -2 75 -5
58 -7z m703 -46 c67 -92 75 -107 57 -107 -9 0 -19 10 -24 22 -4 12 -23 27 -42
33 -25 9 -37 20 -45 46 -7 20 -8 38 -3 45 5 6 5 15 1 19 -4 5 -1 5 6 1 7 -4
29 -31 50 -59z m-2378 3 c-12 -42 -17 -48 -50 -55 -22 -5 -32 -15 -40 -41 -6
-19 -18 -34 -25 -34 -24 0 -8 38 46 111 39 54 54 67 64 59 9 -8 11 -20 5 -40z
m860 40 c0 -5 -2 -10 -4 -10 -3 0 -8 5 -11 10 -3 6 -1 10 4 10 6 0 11 -4 11
-10z m620 6 c0 -3 -4 -8 -10 -11 -5 -3 -10 -1 -10 4 0 6 5 11 10 11 6 0 10 -2
10 -4z m-560 -67 c0 -6 -11 -1 -24 12 -14 13 -22 27 -20 31 6 9 44 -28 44 -43z
m530 44 c0 -5 -12 -19 -25 -32 -28 -26 -34 -11 -7 18 18 20 32 26 32 14z
m-903 -20 c2 -6 -6 -13 -18 -16 -13 -3 -18 -10 -14 -17 4 -7 16 -10 26 -7 12
3 19 0 19 -9 0 -18 -21 -18 -46 1 -10 8 -27 15 -36 15 -15 0 -16 4 -6 25 9 20
17 24 42 21 16 -2 32 -8 33 -13z m298 -25 c16 -24 22 -38 14 -31 -15 12 -53
73 -46 73 2 0 17 -19 32 -42z m995 27 c10 -12 7 -14 -19 -12 -28 2 -29 3 -14
15 21 15 18 15 33 -3z m-1620 -16 c0 -5 -4 -9 -10 -9 -5 0 -10 7 -10 16 0 8 5
12 10 9 6 -3 10 -10 10 -16z m430 17 c0 -2 -8 -10 -17 -17 -16 -13 -17 -12 -4
4 13 16 21 21 21 13z m-300 -25 c0 -12 -26 -21 -61 -21 -24 0 -29 -4 -29 -25
0 -14 -4 -25 -10 -25 -5 0 -10 11 -10 24 0 14 -5 28 -10 31 -6 4 -8 10 -6 14
6 10 126 12 126 2z m332 -9 c3 -10 -1 -23 -8 -30 -10 -9 -12 -6 -9 16 4 33 4
32 9 32 2 0 6 -8 8 -18z m78 14 c0 -11 -19 -15 -25 -6 -3 5 1 10 9 10 9 0 16
-2 16 -4z m830 0 c0 -3 -4 -8 -10 -11 -5 -3 -10 -1 -10 4 0 6 5 11 10 11 6 0
10 -2 10 -4z m504 -4 c14 -8 -24 -20 -61 -21 -37 -1 -63 7 -63 20 0 9 107 10
124 1z m-1882 -14 c9 -7 18 -24 21 -38 2 -14 8 -34 12 -45 6 -18 5 -18 -7 -3
-9 10 -23 14 -41 11 -52 -10 -77 42 -35 71 27 19 30 19 50 4z m1950 -5 c32
-29 16 -73 -27 -73 -46 0 -60 48 -23 74 28 20 27 20 50 -1z m-682 3 c0 -2 -8
-10 -17 -17 -16 -13 -17 -12 -4 4 13 16 21 21 21 13z m-874 -38 c-18 -26 -22
-17 -5 14 6 11 13 17 16 15 3 -3 -2 -16 -11 -29z m1124 -12 c0 -5 -7 -1 -15
10 -8 10 -14 24 -14 29 0 6 6 1 14 -9 8 -11 15 -24 15 -30z m63 37 c-7 -2 -19
-2 -25 0 -7 3 -2 5 12 5 14 0 19 -2 13 -5z m-373 -34 c-11 -8 -12 -12 -2 -16
6 -2 12 -9 12 -14 0 -11 -49 22 -50 33 0 7 42 16 50 10 2 -2 -2 -8 -10 -13z
m-480 7 c0 -3 -11 -17 -25 -32 -18 -19 -25 -22 -25 -11 0 8 6 18 13 20 9 4 8
8 -3 16 -12 9 -10 11 13 11 15 0 27 -2 27 -4z m1144 -12 c3 -9 1 -23 -5 -32
-9 -15 -10 -15 -5 2 4 10 1 25 -5 32 -7 9 -8 14 -1 14 5 0 13 -7 16 -16z
m-1404 -9 c-7 -8 -10 -22 -6 -30 3 -8 1 -15 -4 -15 -6 0 -10 6 -10 14 0 23 11
46 22 46 6 0 5 -6 -2 -15z m101 -54 c-8 -5 -11 -16 -8 -25 4 -9 2 -16 -3 -16
-6 0 -10 -4 -10 -10 0 -5 8 -7 18 -5 9 3 2 -2 -16 -10 -18 -9 -37 -13 -42 -10
-5 3 -11 1 -15 -5 -3 -5 -14 -10 -23 -10 -12 1 -10 4 7 14 14 8 30 12 37 9 12
-4 41 54 30 64 -3 3 -1 12 6 20 8 10 14 11 22 3 8 -8 7 -13 -3 -19z m84 19
c-4 -6 8 -10 27 -10 19 0 40 -6 47 -12 11 -11 12 -8 6 12 -3 14 -3 20 2 14 15
-20 44 -24 60 -9 14 14 33 12 33 -4 0 -15 -88 -30 -143 -24 -42 4 -57 3 -57
-7 0 -9 11 -11 38 -6 22 3 42 3 45 0 3 -4 30 -7 59 -7 40 -1 53 2 53 13 0 11
15 16 58 18 46 2 58 6 53 18 -4 10 2 14 22 13 15 0 21 -3 15 -6 -30 -11 -9
-23 42 -23 30 0 55 4 55 10 0 8 28 8 50 0 3 -2 9 -2 14 -1 5 1 13 -4 17 -10 5
-9 11 -10 21 -2 18 15 98 21 98 8 0 -6 9 -27 20 -48 11 -20 16 -37 10 -37 -5
0 -10 -5 -10 -11 0 -7 21 -10 59 -7 33 1 63 0 67 -5 4 -4 -1 -7 -12 -7 -18 -1
-18 -1 -1 -14 12 -10 28 -11 52 -6 25 6 33 5 28 -4 -27 -47 -68 -99 -112 -141
-117 -113 -247 -165 -414 -165 -184 0 -308 49 -428 169 -42 42 -84 91 -93 109
l-17 32 46 0 c44 0 61 14 28 23 -10 3 12 5 50 6 37 0 67 5 67 11 0 6 -6 10
-12 11 -7 0 -4 4 7 9 11 4 42 5 69 2 43 -5 48 -3 44 14 -4 20 -21 22 -75 10
l-32 -7 11 33 c6 18 16 36 22 40 15 10 18 10 11 -2z m210 0 c3 -5 -1 -10 -9
-10 -9 0 -16 5 -16 10 0 6 4 10 9 10 6 0 13 -4 16 -10z m185 0 c0 -5 -7 -10
-16 -10 -8 0 -12 5 -9 10 3 6 10 10 16 10 5 0 9 -4 9 -10z m1187 4 c-3 -3 -12
-4 -19 -1 -8 3 -5 6 6 6 11 1 17 -2 13 -5z m-882 -30 c1 -33 16 -66 29 -61 7
3 23 -1 37 -9 13 -7 20 -13 16 -14 -20 -1 -103 24 -112 33 -7 7 -4 8 8 4 9 -4
17 -2 17 3 0 6 -4 10 -9 10 -5 0 -7 9 -4 20 3 12 0 20 -6 20 -7 0 -9 5 -6 11
10 16 30 5 30 -17z m95 -14 c-10 -6 -9 -14 4 -41 9 -18 14 -34 11 -37 -2 -3
-7 3 -11 12 -3 9 -12 16 -20 16 -8 0 -14 5 -14 10 0 6 4 10 9 10 4 0 7 16 5
35 -2 32 -1 33 13 19 13 -13 14 -17 3 -24z m-1900 0 c0 -10 -4 -21 -8 -24 -5
-3 -9 8 -9 24 0 16 4 27 9 24 4 -3 8 -14 8 -24z m347 19 c12 -12 6 -49 -9 -49
-6 0 -7 7 -4 16 4 9 1 23 -5 30 -13 16 2 19 18 3z m183 7 c0 -3 -4 -8 -10 -11
-5 -3 -10 -1 -10 4 0 6 5 11 10 11 6 0 10 -2 10 -4z m414 -11 c-4 -8 -8 -15
-10 -15 -2 0 -4 7 -4 15 0 8 4 15 10 15 5 0 7 -7 4 -15z m926 -7 c0 -19 -2
-20 -10 -8 -13 19 -13 30 0 30 6 0 10 -10 10 -22z m420 12 c0 -5 -2 -10 -4
-10 -3 0 -8 5 -11 10 -3 6 -1 10 4 10 6 0 11 -4 11 -10z m181 -4 c-6 -7 -9
-21 -5 -30 3 -9 2 -16 -4 -16 -5 0 -13 7 -16 16 -7 17 9 44 26 44 6 0 6 -6 -1
-14z m346 -16 c0 -16 -4 -27 -9 -24 -10 6 -11 38 -1 47 9 10 10 10 10 -23z
m-1903 4 c3 -9 4 -20 0 -25 -3 -5 0 -9 5 -9 6 0 11 -4 11 -10 0 -5 -7 -10 -15
-10 -8 0 -15 -4 -15 -10 0 -5 -9 -14 -19 -19 -14 -8 -22 -7 -31 4 -11 13 -9
15 11 13 26 -3 56 39 39 56 -12 12 -13 26 -1 26 5 0 12 -7 15 -16z m-834 -4
c0 -5 -4 -10 -10 -10 -5 0 -10 5 -10 10 0 6 5 10 10 10 6 0 10 -4 10 -10z
m138 -7 c16 -16 16 -16 0 -10 -13 5 -18 1 -18 -12 0 -10 -7 -21 -15 -25 -16
-6 -21 9 -6 19 6 3 8 14 6 25 -5 24 11 26 33 3z m2522 7 c0 -5 -4 -10 -10 -10
-5 0 -10 5 -10 10 0 6 5 10 10 10 6 0 10 -4 10 -10z m-1960 -10 c0 -5 -5 -10
-11 -10 -5 0 -7 5 -4 10 3 6 8 10 11 10 2 0 4 -4 4 -10z m1805 0 c3 -5 1 -10
-4 -10 -6 0 -11 5 -11 10 0 6 2 10 4 10 3 0 8 -4 11 -10z m-1997 -17 c-4 -22
-22 -20 -26 1 -2 10 3 16 13 16 10 0 15 -7 13 -17z m1386 2 c-4 -8 -11 -15
-16 -15 -6 0 -5 6 2 15 7 8 14 15 16 15 2 0 1 -7 -2 -15z m261 -15 c-5 -8 -11
-8 -17 -2 -6 6 -7 16 -3 22 5 8 11 8 17 2 6 -6 7 -16 3 -22z m-2090 1 c7 -12
-12 -24 -25 -16 -11 7 -4 25 10 25 5 0 11 -4 15 -9z m1855 -6 c0 -8 -4 -15
-10 -15 -5 0 -7 7 -4 15 4 8 8 15 10 15 2 0 4 -7 4 -15z m685 6 c7 -12 -12
-24 -25 -16 -11 7 -4 25 10 25 5 0 11 -4 15 -9z m-1870 -11 c3 -5 1 -10 -4
-10 -6 0 -11 5 -11 10 0 6 2 10 4 10 3 0 8 -4 11 -10z m1135 -25 c-7 -9 -15
-13 -19 -10 -3 3 1 10 9 15 21 14 24 12 10 -5z m-1514 -27 c0 -18 4 -42 8 -53
8 -20 7 -20 -8 -1 -16 20 -23 86 -8 86 4 0 7 -15 8 -32z m-246 2 c0 -5 -4 -10
-10 -10 -5 0 -10 5 -10 10 0 6 5 10 10 10 6 0 10 -4 10 -10z m480 0 c0 -5 -18
-10 -40 -10 -22 0 -40 5 -40 10 0 6 18 10 40 10 22 0 40 -4 40 -10z m1408 -25
c1 -1 -16 -5 -39 -9 -23 -4 -44 -4 -47 -1 -3 3 6 5 19 6 22 0 23 1 4 9 -14 7
-8 8 20 3 22 -3 41 -7 43 -8z m-1868 -7 c0 -4 -7 -8 -15 -8 -9 0 -20 -10 -25
-22 -5 -13 -9 -18 -10 -13 -1 6 -3 19 -5 31 -4 17 1 21 25 21 17 0 30 -4 30
-9z m80 2 c0 -5 -12 -10 -27 -10 -22 0 -25 -2 -13 -10 12 -8 11 -10 -5 -10
-14 0 -21 7 -22 20 -1 16 4 20 33 20 19 0 34 -4 34 -10z m2287 -10 c-1 -13 -8
-20 -22 -20 -16 0 -17 2 -5 10 12 8 10 10 -8 10 -13 0 -20 4 -17 10 3 6 17 10
30 10 18 0 23 -5 22 -20z m73 8 c0 -4 -13 -8 -30 -8 -16 0 -30 4 -30 8 0 5 14
9 30 9 17 0 30 -4 30 -9z m-2440 -28 c0 -5 -4 -10 -9 -10 -6 0 -13 5 -16 10
-3 6 1 10 9 10 9 0 16 -4 16 -10z m167 4 c-3 -3 -12 -4 -19 -1 -8 3 -5 6 6 6
11 1 17 -2 13 -5z m2070 0 c-3 -3 -12 -4 -19 -1 -8 3 -5 6 6 6 11 1 17 -2 13
-5z m173 2 c0 -11 -19 -15 -25 -6 -3 5 1 10 9 10 9 0 16 -2 16 -4z m-2470 -20
c0 -3 -4 -8 -10 -11 -5 -3 -10 -1 -10 4 0 6 5 11 10 11 6 0 10 -2 10 -4z
m2520 -6 c0 -5 -5 -10 -11 -10 -5 0 -7 5 -4 10 3 6 8 10 11 10 2 0 4 -4 4 -10z
m-1759 -42 c22 -23 27 -33 17 -39 -8 -5 -16 2 -25 22 -12 29 -33 40 -33 17 1
-7 7 -24 15 -38 46 -80 -18 -109 -70 -32 -18 26 -21 38 -13 43 17 11 28 1 28
-25 0 -26 24 -51 39 -41 7 4 4 20 -9 46 -16 30 -18 44 -10 59 15 28 27 25 61
-12z m1002 -49 c23 -33 31 -38 42 -29 8 7 15 21 15 31 0 12 7 19 20 19 11 0
20 -3 20 -7 0 -13 -92 -109 -139 -146 l-44 -35 -28 56 c-26 52 -29 72 -11 72
4 0 18 -20 32 -45 14 -25 28 -45 31 -45 14 0 30 30 23 41 -5 8 -2 10 8 7 8 -4
21 -2 28 2 15 9 2 34 -38 76 -15 16 -18 24 -9 33 16 16 19 14 50 -30z m-904
-43 c13 -14 20 -30 16 -36 -5 -8 -11 -4 -19 12 -11 21 -59 40 -54 21 1 -4 -4
-20 -12 -35 -17 -35 2 -62 37 -53 26 6 32 -9 7 -19 -24 -9 -28 -8 -52 14 -26
24 -29 66 -6 98 20 29 55 28 83 -2z m53 -93 c-13 -24 -21 -50 -18 -58 7 -19
-5 -19 -30 0 -13 10 -15 17 -8 22 15 11 44 68 44 88 0 12 3 13 18 4 18 -11 18
-14 -6 -56z m738 -33 c19 0 10 -17 -15 -28 -21 -10 -25 -9 -25 6 0 9 -11 35
-24 58 -20 36 -21 42 -7 51 12 8 19 1 38 -39 12 -26 27 -48 33 -48z m-611 24
c1 -1 0 -8 -4 -14 -5 -8 -12 -7 -23 3 -29 25 -38 26 -38 6 0 -12 7 -19 18 -19
20 0 21 -1 12 -24 -5 -14 -8 -14 -22 0 -15 15 -16 15 -23 -2 -8 -22 15 -46 37
-37 8 3 21 -3 29 -13 13 -17 16 -17 25 -4 5 8 12 34 16 56 5 35 9 41 26 36 10
-2 17 -10 15 -16 -3 -7 1 -25 8 -41 13 -30 13 -30 16 -5 1 14 2 31 2 38 -1 6
6 12 14 12 9 0 13 -6 9 -15 -3 -8 -8 -37 -12 -64 -8 -59 -25 -59 -44 0 -17 50
-34 51 -27 0 l5 -39 -56 20 c-31 11 -69 26 -84 34 -26 14 -27 16 -13 31 9 8
14 22 11 30 -3 8 1 21 10 30 8 9 13 22 10 29 -4 10 7 8 37 -7 23 -12 44 -23
46 -25z m528 -26 c9 -21 21 -38 27 -38 6 -1 0 -7 -14 -15 -23 -12 -25 -12 -30
8 -8 30 -40 36 -40 7 0 -11 8 -24 17 -27 15 -6 15 -7 -3 -14 -27 -11 -46 -11
-40 0 9 13 -4 42 -15 35 -6 -3 -7 5 -3 20 3 15 1 32 -5 40 -9 11 -7 15 9 19
15 4 20 0 20 -13 0 -24 18 -36 33 -21 9 9 8 16 -1 31 -10 16 -9 21 6 29 13 8
18 6 20 -7 2 -9 10 -34 19 -54z m-319 -4 c12 -4 22 -13 22 -20 0 -17 -5 -17
-30 -2 -16 11 -22 9 -34 -7 -17 -23 -16 -46 3 -69 17 -20 40 -21 47 -1 7 16
24 21 24 6 0 -16 -31 -41 -51 -41 -29 0 -59 36 -59 70 0 17 9 39 20 50 22 22
25 23 58 14z m136 -7 c-3 -9 -14 -12 -30 -9 -18 3 -24 0 -24 -13 0 -12 5 -15
20 -10 14 4 20 2 20 -9 0 -8 -10 -16 -22 -18 -12 -2 -23 -9 -26 -15 -5 -19 27
-28 49 -15 10 7 25 9 34 6 18 -7 20 -20 3 -21 -7 -1 -35 -5 -62 -9 -43 -6 -49
-5 -43 9 3 9 0 23 -9 31 -10 10 -11 17 -3 22 6 3 9 19 6 33 -6 27 -4 28 43 30
39 1 49 -1 44 -12z"/>
<path d="M1690 2182 c-20 -9 -24 -46 -6 -61 19 -16 52 0 61 30 10 31 -19 47
-55 31z"/>
<path d="M1350 2066 c-79 -21 -170 -59 -170 -72 0 -3 17 -28 39 -56 36 -47 41
-51 85 -52 25 0 46 2 46 5 0 6 -32 99 -45 131 -6 14 1 16 53 15 l59 -2 22 -73
21 -73 43 3 c24 2 43 8 43 16 1 6 2 21 3 31 1 15 10 20 46 23 l45 3 0 -37 c0
-35 2 -38 29 -38 23 0 30 5 34 28 10 50 29 64 71 57 27 -6 36 -11 32 -22 -4
-8 -9 -26 -12 -39 -9 -34 18 -31 49 5 18 22 27 27 36 18 6 -6 13 -8 16 -6 8 9
-89 77 -147 104 -125 57 -261 68 -398 31z"/>
<path d="M1064 1888 l-19 -23 23 19 c21 18 27 26 19 26 -2 0 -12 -10 -23 -22z"/>
<path d="M1227 1719 c7 -7 15 -10 18 -7 3 3 -2 9 -12 12 -14 6 -15 5 -6 -5z"/>
<path d="M1630 1345 c-14 -17 -12 -18 57 -15 44 1 51 -1 50 -16 -2 -21 34 -27
80 -15 27 8 27 8 -17 19 -66 16 -112 28 -136 36 -14 4 -26 1 -34 -9z"/>
<path d="M1773 1338 c21 -7 32 -7 40 1 8 8 0 11 -28 10 -40 -1 -40 -1 -12 -11z"/>
<path d="M1570 1130 c-13 -8 -12 -12 8 -25 12 -9 20 -21 17 -26 -10 -15 -23
-11 -28 9 -4 13 -5 12 -6 -5 -1 -28 17 -39 36 -21 20 21 -4 83 -27 68z"/>
<path d="M1280 1120 c0 -12 28 -21 35 -11 2 5 -4 11 -15 14 -11 3 -20 2 -20
-3z"/>
<path d="M1335 1122 c-13 -13 -3 -21 18 -13 12 4 29 6 37 3 8 -3 12 -2 8 2 -8
9 -56 15 -63 8z"/>
<path d="M1418 1113 c7 -3 16 -2 19 1 4 3 -2 6 -13 5 -11 0 -14 -3 -6 -6z"/>
<path d="M1519 1090 c-7 -35 -4 -48 7 -38 3 4 4 21 2 40 l-3 33 -6 -35z"/>
<path d="M1614 1109 c-4 -8 0 -9 15 -4 19 6 20 4 11 -21 -6 -15 -8 -29 -6 -32
3 -3 10 8 16 23 6 15 13 32 16 36 3 5 -6 9 -20 9 -14 0 -28 -5 -32 -11z"/>
<path d="M1682 1100 c-16 -26 -15 -30 3 -30 8 0 15 -5 15 -11 0 -8 4 -8 14 1
12 9 13 17 4 36 -14 29 -19 30 -36 4z m28 -16 c0 -8 -5 -12 -10 -9 -6 4 -8 11
-5 16 9 14 15 11 15 -7z"/>
<path d="M1277 1080 c-3 -12 0 -20 7 -20 6 0 12 9 13 20 1 11 -2 20 -6 20 -5
0 -11 -9 -14 -20z"/>
<path d="M1323 1075 c-9 -10 -7 -14 12 -17 22 -5 45 7 45 22 0 12 -45 8 -57
-5z"/>
<path d="M1400 1059 c0 -5 5 -7 10 -4 6 3 10 8 10 11 0 2 -4 4 -10 4 -5 0 -10
-5 -10 -11z"/>
<path d="M626 1191 c-4 -5 3 -7 14 -4 23 6 26 13 6 13 -8 0 -17 -4 -20 -9z"/>
<path d="M2340 1196 c0 -2 9 -6 20 -9 11 -3 18 -1 14 4 -5 9 -34 13 -34 5z"/>
<path d="M2308 1174 c21 -10 13 -24 -15 -24 -17 0 -23 -4 -17 -9 5 -6 37 -7
79 -2 l70 7 -45 13 c-59 16 -88 22 -72 15z"/>
<path d="M16 1131 c-4 -5 3 -7 14 -4 23 6 26 13 6 13 -8 0 -17 -4 -20 -9z"/>
<path d="M85 1122 c-74 -16 -81 -19 -73 -27 3 -3 17 -1 31 4 18 7 54 7 111 -1
49 -6 105 -7 133 -2 l48 8 -70 8 c-38 5 -71 13 -73 18 -5 13 -21 12 -107 -8z"/>
<path d="M2430 1130 c0 -5 -11 -10 -25 -10 -28 0 -34 -17 -7 -22 9 -2 35 0 57
4 57 10 95 10 95 -2 0 -5 -13 -10 -30 -10 -29 0 -40 -13 -21 -24 5 -3 41 -2
81 3 75 10 79 9 249 -38 41 -11 71 -17 65 -12 -5 6 -72 26 -149 45 -77 20
-171 45 -210 56 -78 22 -105 25 -105 10z"/>
<path d="M2808 1130 c-2 -5 -34 -13 -73 -18 l-70 -8 47 -8 c26 -5 83 -3 130 3
46 6 94 9 108 6 14 -3 7 1 -15 9 -59 19 -123 28 -127 16z"/>
<path d="M2958 1133 c7 -3 16 -2 19 1 4 3 -2 6 -13 5 -11 0 -14 -3 -6 -6z"/>
</g>
</svg>
